#N canvas 765 248 1124 629 12;
#X obj 57 249 print;
#X obj 311 114 udpreceive;
#X obj 311 190 unpackOSC;
#X obj 35 68 tgl 15 0 empty empty empty 17 7 0 10 -262144 -1 -1 1 1
;
#X msg 33 119 \; pd dsp \$1;
#X text 28 23 turn audio on and off;
#X text 301 17 receive OSC (http://hvc.berlin/puredata/);
#X msg 311 68 port 6667;
#X obj 310 230 routeOSC /geiger;
#X obj 898 70 bng 15 250 50 0 empty empty empty 17 7 0 10 -262144 -1
-1;
#X obj 898 99 openpanel;
#X obj 898 161 soundfiler;
#X floatatom 898 199 10 0 0 0 - - -;
#N canvas 0 50 450 250 (subpatch) 0;
#X array geiger 721 float 2;
#X coords 0 1 721 -1 200 140 1 0 0;
#X restore 897 249 graph;
#X msg 898 123 read -resize \$1 geiger;
#X obj 310 273 pack f f f;
#X msg 310 297 \$1 \, \$2 \$3;
#X obj 310 321 vline~;
#X obj 310 345 tabread4~ geiger;
#X obj 310 403 *~;
#X obj 310 446 dac~;
#X obj 364 405 hsl 128 15 0 127 0 0 empty empty Volume -2 -8 0 10 -262144
-1 -1 200 1;
#X text 394 298 start \, end duration;
#X text 566 198 length of geiger sound file: ca 0.033 sec;
#X msg 570 225 0 \, 721 33;
#X text 892 24 open geiger sound file;
#X msg 939 69 ../samples/geiger;
#X connect 1 0 2 0;
#X connect 2 0 0 0;
#X connect 2 0 8 0;
#X connect 3 0 4 0;
#X connect 7 0 1 0;
#X connect 8 0 15 0;
#X connect 9 0 10 0;
#X connect 10 0 14 0;
#X connect 11 0 12 0;
#X connect 14 0 11 0;
#X connect 15 0 16 0;
#X connect 16 0 17 0;
#X connect 17 0 18 0;
#X connect 18 0 19 0;
#X connect 19 0 20 0;
#X connect 19 0 20 1;
#X connect 21 0 19 1;
#X connect 24 0 15 0;
#X connect 26 0 10 0;
