#N canvas 794 300 1037 781 12;
#X obj 79 46 inlet;
#X obj 80 169 outlet~;
#X obj 79 71 pack f f f;
#X msg 79 95 \$1 \, \$2 \$3;
#X obj 79 119 vline~;
#X obj 79 143 tabread4~ geiger;
#X text 163 96 start \, end duration;
#X msg 1076 67 read -resize samples/geiger2.wav geiger;
#X msg 1086 77 read -resize samples/geiger2.wav geiger;
#X msg 1096 87 read -resize samples/geiger2.wav geiger;
#X obj 363 27 loadbang;
#X obj 363 104 soundfiler;
#X floatatom 363 131 5 0 0 0 - - -;
#X msg 363 65 read -resize samples/geiger2.wav geiger;
#X connect 0 0 2 0;
#X connect 2 0 3 0;
#X connect 3 0 4 0;
#X connect 4 0 5 0;
#X connect 5 0 1 0;
#X connect 10 0 13 0;
#X connect 11 0 12 0;
#X connect 13 0 11 0;
