#N canvas 627 170 1397 629 12;
#X obj 311 114 udpreceive;
#X obj 311 190 unpackOSC;
#X obj 34 68 tgl 15 0 empty empty empty 17 7 0 10 -262144 -1 -1 1 1
;
#X msg 33 119 \; pd dsp \$1;
#X text 28 23 turn audio on and off;
#X text 301 17 receive OSC (http://hvc.berlin/puredata/);
#X msg 311 68 port 6667;
#X obj 310 230 routeOSC /geiger;
#X obj 310 344 dac~;
#X text 566 198 length of geiger sound file: ca 0.033 sec;
#X msg 570 225 0 \, 1585 33;
#X obj 310 301 *~ 0.3;
#X obj 309 268 geiger_counter;
#X obj 140 231 print;
#N canvas 0 50 450 250 (subpatch) 0;
#X array geiger 1585 float 2;
#X coords 0 1 1585 -1 200 140 1;
#X restore 944 54 graph;
#X connect 0 0 1 0;
#X connect 1 0 7 0;
#X connect 1 0 13 0;
#X connect 2 0 3 0;
#X connect 6 0 0 0;
#X connect 7 0 12 0;
#X connect 10 0 12 0;
#X connect 11 0 8 0;
#X connect 11 0 8 1;
#X connect 12 0 11 0;
