#N canvas 436 88 1914 1052 12;
#X obj 57 249 print;
#X msg 311 68 port 6666;
#X obj 311 114 udpreceive;
#X obj 311 190 unpackOSC;
#X obj 35 68 tgl 15 0 empty empty empty 17 7 0 10 -262144 -1 -1 1 1
;
#X msg 33 119 \; pd dsp \$1;
#X text 28 23 turn audio on and off;
#X obj 1076 239 routeOSC /select;
#X text 301 17 receive OSC (http://hvc.berlin/puredata/);
#X obj 168 249 routeOSC /voice;
#X obj 171 333 voice;
#X obj 168 371 dac~;
#X msg 71 300 64 122 2.1;
#X obj 642 998 dac~;
#X obj 640 913 *~ 0.3;
#X obj 268 752 +~;
#X obj 545 777 +~;
#X obj 1251 280 select 0 1 2 3 4 5;
#X obj 1222 343 square_synth;
#X obj 1318 344 square_synth;
#X obj 1411 345 square_synth;
#X obj 1504 346 square_synth;
#X obj 1599 346 square_synth;
#X obj 1691 347 square_synth;
#X obj 1784 349 square_synth;
#X obj 1726 787 dac~;
#X obj 1725 740 *~ 0.3;
#X obj 1248 415 +~;
#X obj 1343 456 +~;
#X obj 1435 499 +~;
#X obj 1522 545 +~;
#X obj 1633 605 +~;
#X obj 1726 658 +~;
#X obj 562 634 square_synth;
#X obj 390 647 square_synth;
#X obj 221 645 square_synth;
#X obj 227 557 routeOSC /voice0;
#X obj 386 557 routeOSC /voice1;
#X obj 545 561 routeOSC /voice2;
#X obj 709 777 +~;
#X obj 726 634 square_synth;
#X obj 865 777 +~;
#X obj 882 634 square_synth;
#X obj 1011 783 +~;
#X obj 1028 640 square_synth;
#X obj 709 561 routeOSC /voice3;
#X obj 865 561 routeOSC /voice4;
#X obj 1012 566 routeOSC /voice5;
#X obj 1151 781 +~;
#X obj 1168 638 square_synth;
#X obj 1152 564 routeOSC /voice6;
#X obj 644 958 lop~ 5;
#X connect 1 0 2 0;
#X connect 2 0 3 0;
#X connect 3 0 0 0;
#X connect 3 0 7 0;
#X connect 3 0 9 0;
#X connect 3 0 36 0;
#X connect 3 0 37 0;
#X connect 3 0 38 0;
#X connect 3 0 45 0;
#X connect 3 0 46 0;
#X connect 3 0 47 0;
#X connect 3 0 50 0;
#X connect 4 0 5 0;
#X connect 7 0 17 0;
#X connect 9 0 10 0;
#X connect 10 0 11 0;
#X connect 12 0 10 0;
#X connect 14 0 51 0;
#X connect 15 0 16 0;
#X connect 16 0 39 0;
#X connect 17 0 18 0;
#X connect 17 1 19 0;
#X connect 17 2 20 0;
#X connect 17 3 21 0;
#X connect 17 4 22 0;
#X connect 17 5 23 0;
#X connect 17 6 24 0;
#X connect 18 0 27 0;
#X connect 19 0 27 1;
#X connect 20 0 28 1;
#X connect 21 0 29 1;
#X connect 22 0 30 1;
#X connect 23 0 31 1;
#X connect 24 0 32 1;
#X connect 26 0 25 0;
#X connect 27 0 28 0;
#X connect 28 0 29 0;
#X connect 29 0 30 0;
#X connect 30 0 31 0;
#X connect 31 0 32 0;
#X connect 32 0 26 0;
#X connect 33 0 16 1;
#X connect 34 0 15 1;
#X connect 35 0 15 0;
#X connect 36 0 35 0;
#X connect 37 0 34 0;
#X connect 38 0 33 0;
#X connect 39 0 41 0;
#X connect 40 0 39 1;
#X connect 41 0 43 0;
#X connect 42 0 41 1;
#X connect 43 0 48 0;
#X connect 44 0 43 1;
#X connect 45 0 40 0;
#X connect 46 0 42 0;
#X connect 47 0 44 0;
#X connect 48 0 14 0;
#X connect 49 0 48 1;
#X connect 50 0 49 0;
#X connect 51 0 13 0;
#X connect 51 0 13 1;
