#N canvas 128 131 1760 751 12;
#X obj 255 412 print;
#X msg 311 121 port 6666;
#X obj 311 156 udpreceive;
#X obj 311 190 unpackOSC;
#X obj 36 68 tgl 15 0 empty empty empty 17 7 0 10 -262144 -1 -1 1 1
;
#X msg 36 99 \; pd dsp \$1;
#X text 28 23 turn audio on and off;
#X text 301 17 receive OSC (http://hvc.berlin/puredata/);
#X obj 1218 670 dac~;
#X obj 451 499 +~;
#X obj 610 517 +~;
#X obj 311 415 routeOSC /voice0;
#X obj 470 415 routeOSC /voice1;
#X obj 629 419 routeOSC /voice2;
#X obj 774 536 +~;
#X obj 932 556 +~;
#X obj 1079 576 +~;
#X obj 793 419 routeOSC /voice3;
#X obj 949 419 routeOSC /voice4;
#X obj 1096 424 routeOSC /voice5;
#X obj 1219 596 +~;
#X obj 1236 422 routeOSC /voice6;
#X obj 1220 630 lop~ 5;
#X obj 311 449 sample_player;
#X obj 470 452 sample_player;
#X obj 629 456 sample_player;
#X obj 793 458 sample_player;
#X obj 949 461 sample_player;
#X obj 1096 465 sample_player;
#X obj 1236 469 sample_player;
#X text 680 20 init table for sample;
#N canvas 0 50 450 250 (subpatch) 0;
#X array soundData 792197 float 2;
#X coords 0 1 792197 -1 200 140 1;
#X restore 685 72 graph;
#X obj 1400 420 routeOSC /geiger;
#X obj 1400 534 dac~;
#X text 1656 388 length of geiger sound file: ca 0.033 sec;
#X msg 1660 415 0 \, 1585 33;
#X obj 1400 491 *~ 0.3;
#X obj 1399 458 geiger_counter;
#N canvas 0 50 450 250 (subpatch) 0;
#X array geiger 1585 float 2;
#X coords 0 1 1585 -1 200 140 1;
#X restore 916 72 graph;
#X connect 1 0 2 0;
#X connect 2 0 3 0;
#X connect 3 0 0 0;
#X connect 3 0 11 0;
#X connect 3 0 12 0;
#X connect 3 0 13 0;
#X connect 3 0 17 0;
#X connect 3 0 18 0;
#X connect 3 0 19 0;
#X connect 3 0 21 0;
#X connect 3 0 32 0;
#X connect 4 0 5 0;
#X connect 9 0 10 0;
#X connect 10 0 14 0;
#X connect 11 0 23 0;
#X connect 12 0 24 0;
#X connect 13 0 25 0;
#X connect 14 0 15 0;
#X connect 15 0 16 0;
#X connect 16 0 20 0;
#X connect 17 0 26 0;
#X connect 18 0 27 0;
#X connect 19 0 28 0;
#X connect 20 0 22 0;
#X connect 21 0 29 0;
#X connect 22 0 8 0;
#X connect 22 0 8 1;
#X connect 23 0 9 0;
#X connect 24 0 9 1;
#X connect 25 0 10 1;
#X connect 26 0 14 1;
#X connect 27 0 15 1;
#X connect 28 0 16 1;
#X connect 29 0 20 1;
#X connect 32 0 37 0;
#X connect 35 0 37 0;
#X connect 36 0 33 0;
#X connect 36 0 33 1;
#X connect 37 0 36 0;
