#N canvas -9 -9 1920 976 12;
#X obj 57 249 print;
#X obj 416 413 osc~;
#X obj 417 481 dac~;
#X msg 311 69 port 6666;
#X obj 311 114 udpreceive;
#X obj 311 190 unpackOSC;
#X obj 342 253 routeOSC /oscillator/frequency;
#X obj 35 68 tgl 15 0 empty empty empty 17 7 0 10 -262144 -1 -1 0 1
;
#X msg 33 119 \; pd dsp \$1;
#X text 28 23 turn audio on and off;
#X obj 563 251 routeOSC /midi;
#X obj 577 351 mtof;
#X obj 580 388 sig~;
#X msg 499 290 60;
#X obj 845 55 tgl 15 0 empty empty empty 17 7 0 10 -262144 -1 -1 0
1;
#X obj 845 94 metro;
#X obj 845 136 f;
#X obj 845 184 mod 16;
#X obj 956 132 + 1;
#X obj 877 69 nbx 5 14 300 1e+037 0 0 empty empty empty 0 -8 0 10 -262144
-1 -1 300 256;
#X obj 845 233 hradio 15 1 0 16 empty empty empty 0 -8 0 10 -262144
-1 -1 9;
#X obj 845 480 f;
#X obj 845 270 select 0 1 2 3 4 5 6 7 8 9 10 11 12 13 14 15;
#X obj 863 335 vsl 15 128 0 127 0 0 empty empty empty 0 -9 0 10 -262144
-1 -1 0 1;
#X obj 845 557 mtof;
#X obj 846 735 dac~;
#X text 841 -8 step sequencer (https://archive.flossmanuals.net/pure-data/audio-tutorials/step-sequencer.html)
;
#X obj 882 480 f;
#X obj 900 335 vsl 15 128 0 127 0 0 empty empty empty 0 -9 0 10 -262144
-1 -1 0 1;
#X obj 917 480 f;
#X obj 935 335 vsl 15 128 0 127 0 0 empty empty empty 0 -9 0 10 -262144
-1 -1 0 1;
#X obj 958 480 f;
#X obj 976 335 vsl 15 128 0 127 0 0 empty empty empty 0 -9 0 10 -262144
-1 -1 0 1;
#X obj 993 480 f;
#X obj 1011 335 vsl 15 128 0 127 0 0 empty empty empty 0 -9 0 10 -262144
-1 -1 0 1;
#X obj 1028 480 f;
#X obj 1046 335 vsl 15 128 0 127 0 0 empty empty empty 0 -9 0 10 -262144
-1 -1 0 1;
#X obj 1069 480 f;
#X obj 1087 335 vsl 15 128 0 127 0 0 empty empty empty 0 -9 0 10 -262144
-1 -1 0 1;
#X obj 1105 480 f;
#X obj 1123 335 vsl 15 128 0 127 0 0 empty empty empty 0 -9 0 10 -262144
-1 -1 0 1;
#X obj 1140 480 f;
#X obj 1158 335 vsl 15 128 0 127 0 0 empty empty empty 0 -9 0 10 -262144
-1 -1 0 1;
#X obj 1181 480 f;
#X obj 1199 335 vsl 15 128 0 127 0 0 empty empty empty 0 -9 0 10 -262144
-1 -1 0 1;
#X obj 1216 480 f;
#X obj 1234 335 vsl 15 128 0 127 0 0 empty empty empty 0 -9 0 10 -262144
-1 -1 0 1;
#X obj 1251 480 f;
#X obj 1269 335 vsl 15 128 0 127 0 0 empty empty empty 0 -9 0 10 -262144
-1 -1 0 1;
#X obj 1292 480 f;
#X obj 1310 335 vsl 15 128 0 127 0 0 empty empty empty 0 -9 0 10 -262144
-1 -1 0 1;
#X obj 1328 481 f;
#X obj 1346 336 vsl 15 128 0 127 0 0 empty empty empty 0 -9 0 10 -262144
-1 -1 0 1;
#X obj 1369 481 f;
#X obj 1387 336 vsl 15 128 0 127 0 0 empty empty empty 0 -9 0 10 -262144
-1 -1 0 1;
#X obj 1405 481 f;
#X obj 1423 336 vsl 15 128 0 127 0 0 empty empty empty 0 -9 0 10 -262144
-1 -1 0 1;
#X obj 845 621 osc~;
#X obj 682 247 routeOSC /select;
#X text 301 17 receive OSC (http://hvc.berlin/puredata/);
#X obj 580 479 osc~;
#X obj 583 545 dac~;
#X obj 168 249 routeOSC /voice;
#X obj 171 333 voice;
#X obj 168 371 dac~;
#X msg 71 300 64 122 2.1;
#X obj 85 567 routeOSC /voice1;
#X obj 244 570 routeOSC /voice2;
#X obj 404 566 routeOSC /voice3;
#X obj 397 285 mtof;
#X obj 398 327 sig~;
#X obj 259 631 unpack f f f;
#X obj 340 675 * 1000;
#X obj 456 623 unpack f f f;
#X obj 537 667 * 1000;
#X obj 90 616 unpack f f f;
#X obj 171 660 * 1000;
#X obj 100 714 makenote;
#X obj 271 710 makenote;
#X obj 503 708 makenote;
#X obj 43 801 mtof;
#X obj 42 832 phasor~;
#X obj 207 738 nbx 5 14 -1e+037 1e+037 0 0 empty empty empty 0 -8 0
10 -262144 -1 -1 0 256;
#X obj 205 763 / 100;
#X obj 206 797 osc~;
#X obj 205 832 abs~;
#X text 56 865 square wave generator;
#X obj 292 803 mtof;
#X obj 291 834 phasor~;
#X obj 426 725 nbx 5 14 -1e+037 1e+037 0 0 empty empty empty 0 -8 0
10 -262144 -1 -1 0 256;
#X obj 427 754 / 100;
#X obj 428 788 osc~;
#X obj 427 823 abs~;
#X text 305 867 square wave generator;
#X obj 545 788 mtof;
#X obj 544 819 phasor~;
#X obj 694 701 nbx 5 14 -1e+037 1e+037 0 0 empty empty empty 0 -8 0
10 -262144 -1 -1 0 256;
#X obj 691 725 / 100;
#X obj 692 759 osc~;
#X obj 691 794 abs~;
#X text 558 852 square wave generator;
#X obj 46 892 expr~ ($v1 > 0.5) * 2 - 1;
#X obj 294 894 expr~ ($v1 > 0.5) * 2 - 1;
#X obj 547 879 expr~ ($v1 > 0.5) * 2 - 1;
#X obj 110 960 *~;
#X obj 383 960 *~;
#X obj 629 943 *~;
#X obj 690 1209 dac~;
#X obj 689 1162 *~ 0.3;
#X connect 1 0 2 0;
#X connect 1 0 2 1;
#X connect 3 0 4 0;
#X connect 4 0 5 0;
#X connect 5 0 0 0;
#X connect 5 0 6 0;
#X connect 5 0 10 0;
#X connect 5 0 58 0;
#X connect 5 0 62 0;
#X connect 5 0 66 0;
#X connect 5 0 67 0;
#X connect 5 0 68 0;
#X connect 6 0 69 0;
#X connect 7 0 8 0;
#X connect 10 0 11 0;
#X connect 11 0 12 0;
#X connect 12 0 60 0;
#X connect 13 0 11 0;
#X connect 14 0 15 0;
#X connect 15 0 16 0;
#X connect 16 0 17 0;
#X connect 16 0 18 0;
#X connect 17 0 20 0;
#X connect 18 0 16 1;
#X connect 19 0 15 1;
#X connect 20 0 22 0;
#X connect 21 0 24 0;
#X connect 22 0 21 0;
#X connect 22 1 27 0;
#X connect 22 2 29 0;
#X connect 22 3 31 0;
#X connect 22 4 33 0;
#X connect 22 5 35 0;
#X connect 22 6 37 0;
#X connect 22 7 39 0;
#X connect 22 8 41 0;
#X connect 22 9 43 0;
#X connect 22 10 45 0;
#X connect 22 11 47 0;
#X connect 22 12 49 0;
#X connect 22 13 51 0;
#X connect 22 14 53 0;
#X connect 22 15 55 0;
#X connect 23 0 21 1;
#X connect 24 0 57 0;
#X connect 27 0 24 0;
#X connect 28 0 27 1;
#X connect 29 0 24 0;
#X connect 30 0 29 1;
#X connect 31 0 24 0;
#X connect 32 0 31 1;
#X connect 33 0 24 0;
#X connect 34 0 33 1;
#X connect 35 0 24 0;
#X connect 36 0 35 1;
#X connect 37 0 24 0;
#X connect 38 0 37 1;
#X connect 39 0 24 0;
#X connect 40 0 39 1;
#X connect 41 0 24 0;
#X connect 42 0 41 1;
#X connect 43 0 24 0;
#X connect 44 0 43 1;
#X connect 45 0 24 0;
#X connect 46 0 45 1;
#X connect 47 0 24 0;
#X connect 48 0 47 1;
#X connect 49 0 24 0;
#X connect 50 0 49 1;
#X connect 51 0 24 0;
#X connect 52 0 51 1;
#X connect 53 0 24 0;
#X connect 54 0 53 1;
#X connect 55 0 24 0;
#X connect 56 0 55 1;
#X connect 57 0 25 0;
#X connect 57 0 25 1;
#X connect 58 0 22 0;
#X connect 60 0 61 0;
#X connect 60 0 61 1;
#X connect 62 0 63 0;
#X connect 63 0 64 0;
#X connect 65 0 63 0;
#X connect 66 0 75 0;
#X connect 67 0 71 0;
#X connect 68 0 73 0;
#X connect 69 0 70 0;
#X connect 70 0 1 0;
#X connect 71 0 78 0;
#X connect 71 1 78 1;
#X connect 71 2 72 0;
#X connect 72 0 78 2;
#X connect 73 0 79 0;
#X connect 73 1 79 1;
#X connect 73 2 74 0;
#X connect 74 0 79 2;
#X connect 75 0 77 0;
#X connect 75 1 77 1;
#X connect 75 2 76 0;
#X connect 76 0 77 2;
#X connect 77 0 80 0;
#X connect 77 1 104 1;
#X connect 78 0 87 0;
#X connect 78 1 105 1;
#X connect 79 0 94 0;
#X connect 79 1 106 1;
#X connect 80 0 81 0;
#X connect 81 0 101 0;
#X connect 82 0 83 0;
#X connect 83 0 84 0;
#X connect 84 0 85 0;
#X connect 87 0 88 0;
#X connect 88 0 102 0;
#X connect 89 0 90 0;
#X connect 90 0 91 0;
#X connect 91 0 92 0;
#X connect 94 0 95 0;
#X connect 95 0 103 0;
#X connect 96 0 97 0;
#X connect 97 0 98 0;
#X connect 98 0 99 0;
#X connect 101 0 104 0;
#X connect 102 0 105 0;
#X connect 103 0 106 0;
#X connect 104 0 108 0;
#X connect 105 0 108 0;
#X connect 106 0 108 0;
#X connect 108 0 107 0;
