#N canvas 436 88 1914 1052 12;
#X obj 57 249 print;
#X msg 311 68 port 6666;
#X obj 311 114 udpreceive;
#X obj 311 190 unpackOSC;
#X obj 36 68 tgl 15 0 empty empty empty 17 7 0 10 -262144 -1 -1 0 1
;
#X msg 33 119 \; pd dsp \$1;
#X text 28 23 turn audio on and off;
#X text 301 17 receive OSC (http://hvc.berlin/puredata/);
#X obj 642 998 dac~;
#X obj 268 752 +~;
#X obj 545 777 +~;
#X obj 1054 165 square_synth;
#X obj 882 178 square_synth;
#X obj 713 176 square_synth;
#X obj 227 557 routeOSC /voice0;
#X obj 386 557 routeOSC /voice1;
#X obj 545 561 routeOSC /voice2;
#X obj 709 777 +~;
#X obj 1218 165 square_synth;
#X obj 865 777 +~;
#X obj 1374 165 square_synth;
#X obj 1011 783 +~;
#X obj 1520 171 square_synth;
#X obj 709 561 routeOSC /voice3;
#X obj 865 561 routeOSC /voice4;
#X obj 1012 566 routeOSC /voice5;
#X obj 1151 781 +~;
#X obj 1660 169 square_synth;
#X obj 1152 564 routeOSC /voice6;
#X obj 644 958 lop~ 5;
#X obj 1332 463 table soundData;
#X obj 232 646 sample_player;
#X obj 393 652 sample_player;
#X obj 552 650 sample_player;
#X obj 724 652 sample_player;
#X obj 867 653 sample_player;
#X obj 1014 660 sample_player;
#X obj 1154 661 sample_player;
#X connect 1 0 2 0;
#X connect 2 0 3 0;
#X connect 3 0 0 0;
#X connect 3 0 14 0;
#X connect 3 0 15 0;
#X connect 3 0 16 0;
#X connect 3 0 23 0;
#X connect 3 0 24 0;
#X connect 3 0 25 0;
#X connect 3 0 28 0;
#X connect 4 0 5 0;
#X connect 9 0 10 0;
#X connect 10 0 17 0;
#X connect 14 0 31 0;
#X connect 15 0 32 0;
#X connect 16 0 33 0;
#X connect 17 0 19 0;
#X connect 19 0 21 0;
#X connect 21 0 26 0;
#X connect 23 0 34 0;
#X connect 24 0 35 0;
#X connect 25 0 36 0;
#X connect 26 0 29 0;
#X connect 28 0 37 0;
#X connect 29 0 8 0;
#X connect 29 0 8 1;
#X connect 31 0 9 0;
#X connect 32 0 9 1;
#X connect 33 0 10 1;
#X connect 34 0 17 1;
#X connect 35 0 19 1;
#X connect 36 0 21 1;
#X connect 37 0 26 1;
