#N canvas 991 410 1114 780 12;
#X obj 50 171 soundfiler;
#X floatatom 49 207 10 0 1e+006 0 - - -;
#X floatatom 56 532 5 0 0 0 - - -;
#X obj 182 332 *~;
#X obj 186 253 mtof;
#X obj 485 49 inlet;
#X obj 304 244 -;
#X obj 350 486 outlet~;
#X obj 494 154 makenote;
#X obj 569 123 * 1000;
#X obj 354 425 *~;
#X obj 54 486 sigmund~ -hop 4096 pitch env;
#X floatatom 240 533 5 0 0 0 - - -;
#X text 333 318 don't ask;
#X obj 488 91 unpack f f f;
#X obj 188 289 phasor~;
#X floatatom 386 276 6 0 0 0 - - -;
#X msg 388 249 135.56;
#X obj 386 222 loadbang;
#X obj 182 364 tabread4~ soundData;
#X obj 53 83 loadbang;
#X msg 52 119 read -resize ../samples/lecture_hall1_very_full.wav soundData
;
#X connect 0 0 1 0;
#X connect 1 0 3 0;
#X connect 3 0 19 0;
#X connect 4 0 15 0;
#X connect 5 0 14 0;
#X connect 6 0 4 0;
#X connect 8 0 6 0;
#X connect 8 1 10 1;
#X connect 9 0 8 2;
#X connect 10 0 11 0;
#X connect 10 0 7 0;
#X connect 11 0 2 0;
#X connect 11 1 12 0;
#X connect 14 0 8 0;
#X connect 14 1 8 1;
#X connect 14 2 9 0;
#X connect 15 0 3 1;
#X connect 16 0 6 1;
#X connect 17 0 16 0;
#X connect 18 0 17 0;
#X connect 19 0 10 0;
#X connect 20 0 21 0;
#X connect 21 0 0 0;
