#N canvas 991 410 1114 780 12;
#X obj 182 123 soundfiler;
#X floatatom 182 153 10 0 1e+006 0 - - -;
#X floatatom 194 579 5 0 0 0 - - -;
#X obj 182 332 *~;
#X obj 199 253 mtof;
#X obj 544 130 inlet;
#X obj 493 524 outlet~;
#X obj 550 225 makenote;
#X obj 625 194 * 1000;
#X obj 494 481 *~;
#X obj 194 542 sigmund~ -hop 4096 pitch env;
#X floatatom 387 580 5 0 0 0 - - -;
#X text 371 247 don't ask;
#X obj 544 162 unpack f f f;
#X obj 199 289 phasor~;
#X obj 182 364 tabread4~ soundData;
#X msg 182 78 read -resize ../samples/lecture_hall1_very_full.wav soundData
;
#X obj 304 244 - 135.56;
#X obj 182 46 loadbang;
#X connect 0 0 1 0;
#X connect 1 0 3 0;
#X connect 3 0 15 0;
#X connect 4 0 14 0;
#X connect 5 0 13 0;
#X connect 7 0 17 0;
#X connect 7 1 9 1;
#X connect 8 0 7 2;
#X connect 9 0 10 0;
#X connect 9 0 6 0;
#X connect 10 0 2 0;
#X connect 10 1 11 0;
#X connect 13 0 7 0;
#X connect 13 1 7 1;
#X connect 13 2 8 0;
#X connect 14 0 3 1;
#X connect 15 0 9 0;
#X connect 16 0 0 0;
#X connect 17 0 4 0;
#X connect 18 0 16 0;
