#N canvas 0 50 450 300 12;
#X obj 124 64 unpack f f f;
#X obj 205 108 * 1000;
#X obj 134 162 makenote;
#X obj 77 249 mtof;
#X obj 76 280 phasor~;
#X text 90 313 square wave generator;
#X obj 80 340 expr~ ($v1 > 0.5) * 2 - 1;
#X obj 144 408 *~;
#X obj 126 19 inlet;
#X obj 139 442 outlet~;
#X connect 0 0 2 0;
#X connect 0 1 2 1;
#X connect 0 2 1 0;
#X connect 1 0 2 2;
#X connect 2 0 3 0;
#X connect 2 1 7 1;
#X connect 3 0 4 0;
#X connect 4 0 6 0;
#X connect 6 0 7 0;
#X connect 7 0 9 0;
#X connect 8 0 0 0;
