#N canvas 17 474 514 462 12;
#X obj 255 220 *~ 2000;
#X obj 135 178 mtof;
#X obj 175 256 vcf~ 3;
#X obj 135 10 inlet;
#X obj 157 331 outlet~;
#X obj 135 36 unpack f f f;
#X obj 216 80 * 1000;
#X obj 135 121 makenote;
#X obj 552 351 mtof;
#X obj 552 381 sig~;
#X obj 551 480 osc~;
#X obj 562 361 mtof;
#X obj 562 391 sig~;
#X obj 561 490 osc~;
#X obj 572 371 mtof;
#X obj 572 401 sig~;
#X obj 571 500 osc~;
#X obj 582 381 mtof;
#X obj 582 411 sig~;
#X obj 581 510 osc~;
#X obj 235 293 *~;
#X obj 135 217 phasor~;
#X obj 255 141 adsr 1 10 200 50 500;
#X connect 0 0 2 1;
#X connect 1 0 21 0;
#X connect 2 0 20 0;
#X connect 3 0 5 0;
#X connect 5 0 7 0;
#X connect 5 1 7 1;
#X connect 5 2 6 0;
#X connect 6 0 7 2;
#X connect 7 0 1 0;
#X connect 7 1 22 0;
#X connect 7 1 20 1;
#X connect 8 0 9 0;
#X connect 9 0 10 0;
#X connect 11 0 12 0;
#X connect 12 0 13 0;
#X connect 14 0 15 0;
#X connect 15 0 16 0;
#X connect 17 0 18 0;
#X connect 18 0 19 0;
#X connect 20 0 4 0;
#X connect 21 0 2 0;
#X connect 22 0 0 0;
